<svg width="24" height="24" viewBox="0 0 24 24" fill="none" xmlns="http://www.w3.org/2000/svg">
<path fill-rule="evenodd" clip-rule="evenodd" d="M12.6757 8.68421C6.5178 9.43369 2.88272 14.7571 1.18052 18.2791C0.372477 19.9509 0 21.2168 0 21.3947C0.649802 20.3798 1.31149 19.5478 2.00795 18.8665C4.46389 16.4643 7.35213 15.9371 11.6757 15.8751C12.0008 15.8705 12.3339 15.8684 12.6757 15.8684V22.5L24 12L12.6757 1.5V8.68421ZM13.6757 3.79092V9.56988L12.7965 9.67688C8.66304 10.18 5.71427 12.9538 3.75756 15.8117C3.55949 16.1009 3.3726 16.3897 3.19667 16.6753C3.71424 16.3606 4.25681 16.0956 4.82996 15.8748C7.02622 15.0285 9.58221 14.8684 12.6757 14.8684H13.6757V20.2091L22.5292 12L13.6757 3.79092Z" fill="white"/>
</svg>
