<svg width="55" height="30" viewBox="0 0 55 30" fill="none" xmlns="http://www.w3.org/2000/svg">
<path d="M37.8374 16.5001C37.5558 15.3708 36.6762 13.8486 34.0889 13.0042C32.6409 12.5319 30.7223 12.2925 28.3845 12.2925H21.8622V17.7075H28.3845C28.8976 17.7075 29.3579 17.7205 29.7682 17.744C31.2097 17.8233 31.3833 18.5181 30.1514 19.2805C29.8003 19.4978 29.4029 19.7307 28.9503 19.9766L21.8622 23.846V30L31.4926 24.7424C33.5501 23.6196 35.1267 22.4863 36.1798 21.3752C38.0612 19.3924 38.119 17.6295 37.8374 16.5001Z" fill="white"/>
<mask id="mask0_1024_5076" style="mask-type:alpha" maskUnits="userSpaceOnUse" x="21" y="12" width="17" height="18">
<path d="M37.8374 16.5001C37.5558 15.3708 36.6762 13.8486 34.0889 13.0042C32.6409 12.5319 30.7223 12.2925 28.3845 12.2925H21.8622V17.7075H28.3845C28.8976 17.7075 29.3579 17.7205 29.7682 17.744C31.2097 17.8233 31.3833 18.5181 30.1514 19.2805C29.8003 19.4978 29.4029 19.7307 28.9503 19.9766L21.8622 23.846V30L31.4926 24.7424C33.5501 23.6196 35.1267 22.4863 36.1798 21.3752C38.0612 19.3924 38.119 17.6295 37.8374 16.5001Z" fill="#FF0000"/>
</mask>
<g mask="url(#mask0_1024_5076)">
<path d="M36.7199 9.54852L38.0547 15.3344L21.6012 19.2194L20.2664 13.4335L36.7199 9.54852Z" fill="white"/>
</g>
<path d="M37.8374 4.20765C37.5558 3.07832 36.6762 1.55608 34.0889 0.711684C32.6409 0.239396 30.7223 0 28.3845 0H21.8622V5.41504H28.3845C28.8976 5.41504 29.3579 5.42805 29.7682 5.45147C31.2097 5.53083 31.3833 6.2256 30.1514 6.98803C29.8003 7.20531 29.4029 7.4382 28.9503 7.6841L21.8622 11.5535V17.7075L31.4926 12.4499C33.5501 11.3271 35.1267 10.1939 36.1798 9.08275C38.0612 7.09862 38.119 5.33698 37.8374 4.20765Z" fill="white"/>
<path d="M39.3381 17.7062V14.8842H41.8392V17.7062H39.3381Z" fill="white"/>
<path d="M46.1073 0.0195312V17.7075H44.0639V0.0195312H46.1073Z" fill="white"/>
<path d="M54.9044 5.44497V7.24564H51.6342V14.2037C51.6342 15.3955 52.1628 15.8587 53.7509 15.8587H54.9057V17.7075H53.5593C50.9141 17.7075 49.5922 17.1233 49.5922 14.5446V7.24564H47.1399V5.44497H49.5922V1.74603H51.6355V5.44366H54.9044V5.44497Z" fill="white"/>
<path d="M7.76706 5.44497V7.24564H4.49692V14.2037C4.49692 15.3955 5.02544 15.8587 6.61357 15.8587H7.76835V17.7075H6.42197C3.7768 17.7075 2.45485 17.1233 2.45485 14.5446V7.24564H0V5.44497H2.45228V1.74603H4.49564V5.44366H7.76706V5.44497Z" fill="white"/>
<path d="M8.49876 5.44498H10.6386L14.1247 15.7611H14.8217L18.3079 5.44498H20.4001L16.2401 17.7075H12.6588L8.49876 5.44498Z" fill="white"/>
</svg>
