<?xml version="1.0" standalone="no"?>
<!DOCTYPE svg PUBLIC "-//W3C//DTD SVG 20010904//EN"
 "http://www.w3.org/TR/2001/REC-SVG-20010904/DTD/svg10.dtd">
<svg version="1.0" xmlns="http://www.w3.org/2000/svg"
 width="259.000000pt" height="194.000000pt" viewBox="0 0 259.000000 194.000000"
 preserveAspectRatio="xMidYMid meet">

<g transform="translate(0.000000,194.000000) scale(0.100000,-0.100000)"
fill="#000000" stroke="none">
<path d="M0 970 l0 -970 1295 0 1295 0 0 970 0 970 -1295 0 -1295 0 0 -970z
m903 505 c-3 -8 -9 -15 -14 -15 -10 0 -12 24 -3 33 11 11 24 -3 17 -18z m787
4 c0 -5 -4 -9 -10 -9 -5 0 -10 7 -10 16 0 8 5 12 10 9 6 -3 10 -10 10 -16z
m-866 -44 c12 -47 54 -52 108 -13 24 17 35 2 19 -25 l-14 -22 23 20 23 20 -12
-22 c-15 -29 -63 -37 -126 -21 -41 11 -49 17 -47 33 2 16 1 17 -7 6 -8 -12
-12 -12 -25 -2 -23 19 -20 40 4 34 11 -3 20 0 20 6 0 22 28 11 34 -14z m941
-15 c-17 -19 -17 -20 0 -20 38 0 -6 -28 -54 -34 -60 -8 -78 -2 -83 29 -5 23
-4 23 16 10 30 -22 68 -18 96 9 30 30 51 34 25 6z m-498 -102 c-3 -8 -6 -5 -6
6 -1 11 2 17 5 13 3 -3 4 -12 1 -19z m33 -29 c0 -11 -9 -32 -19 -45 -15 -19
-20 -21 -25 -9 -3 10 1 15 12 15 15 0 15 2 2 10 -10 6 -11 10 -2 10 6 0 12 9
12 20 0 11 5 20 10 20 6 0 10 -9 10 -21z m23 -79 c8 0 7 -4 -1 -12 -9 -9 -15
-9 -24 0 -9 9 -14 7 -24 -6 -12 -16 -13 -16 -14 0 0 18 18 29 38 22 8 -2 19
-4 25 -4z m-728 -750 c7 -12 -12 -12 -40 0 -18 8 -17 9 7 9 15 1 30 -3 33 -9z
m-12 -47 c-7 -2 -19 -2 -25 0 -7 3 -2 5 12 5 14 0 19 -2 13 -5z m1422 -3 c-28
-12 -45 -12 -45 0 0 6 15 10 33 9 27 0 29 -2 12 -9z m160 -254 c18 -13 18 -14
-8 -9 -15 3 -27 9 -27 14 0 13 13 11 35 -5z m-162 -3 c-7 -2 -19 -2 -25 0 -7
3 -2 5 12 5 14 0 19 -2 13 -5z m167 -53 c0 -5 -9 -10 -20 -10 -11 0 -20 5 -20
10 0 6 9 10 20 10 11 0 20 -4 20 -10z m-6 -59 c4 -5 -3 -7 -14 -4 -23 6 -26
13 -6 13 8 0 17 -4 20 -9z"/>
</g>
</svg>
