<svg width="117" height="30" viewBox="0 0 117 30" fill="none" xmlns="http://www.w3.org/2000/svg">
<g clip-path="url(#clip0_1024_5060)">
<path fill-rule="evenodd" clip-rule="evenodd" d="M116.441 0H0V30H116.441V0ZM9.24223 8.23059H11.188V6.2848H9.24223V8.23059ZM11.0777 10.324H9.35203V19.6877H11.0777V10.324ZM14.3891 19.6878V10.324H16.0601V11.8112C16.3298 11.2851 16.7486 10.8684 17.318 10.5625C17.8869 10.2566 18.5018 10.1039 19.1632 10.1039C20.3501 10.1039 21.2315 10.4496 21.8071 11.1411C22.3822 11.8326 22.6702 12.827 22.6702 14.1247V19.6883H20.944V14.8412C20.944 13.6901 20.7969 12.8459 20.5033 12.3071C20.2096 11.7688 19.6953 11.4991 18.9609 11.4991C18.0182 11.4991 17.3083 11.8479 16.8313 12.5456C16.3533 13.2432 16.1148 14.1793 16.1148 15.3544V19.6878H14.3891ZM31.8859 11.7187V10.324H24.4199V11.7187H27.1062V19.6878H28.8324V11.7187H31.8859ZM35.1294 14.1062H39.9765C39.9765 13.3596 39.7686 12.7386 39.3519 12.2427C38.9356 11.7468 38.3672 11.4991 37.6446 11.4991C36.8739 11.4991 36.2616 11.7805 35.8086 12.3433C35.4291 12.8085 35.2029 13.3959 35.1294 14.1062ZM41.0964 17.576V19.3016C40.5091 19.51 40.1297 19.6377 39.9581 19.6872C39.4075 19.8338 38.8008 19.9073 38.14 19.9073C36.5123 19.9073 35.2979 19.4605 34.4961 18.5672C33.6943 17.6735 33.2929 16.4315 33.2929 14.8401C33.2929 13.4326 33.6938 12.2907 34.4961 11.4153C35.2979 10.5405 36.3591 10.1028 37.6813 10.1028C39.1501 10.1028 40.2267 10.6049 40.9126 11.6079C41.5121 12.4894 41.8119 13.7498 41.8119 15.3902H35.1294C35.1294 16.2956 35.4291 17.0428 36.0292 17.6301C36.6288 18.2179 37.357 18.5116 38.214 18.5116C38.74 18.5116 39.2885 18.4105 39.8569 18.2087C40.4264 18.0075 40.8395 17.7961 41.0964 17.576ZM43.9916 10.324V19.6878H45.7173V15.428C45.7173 14.2528 45.9497 13.3223 46.4149 12.6375C46.8797 11.9521 47.4976 11.6089 48.2693 11.6089C48.4286 11.6089 48.591 11.6212 48.756 11.6462C48.9209 11.6702 49.0772 11.7136 49.2238 11.7749V10.2326C48.9792 10.183 48.7831 10.1493 48.6365 10.131C48.4894 10.1131 48.306 10.1039 48.0859 10.1039C47.5967 10.1039 47.1217 10.2596 46.6631 10.5717C46.204 10.8842 45.8521 11.2851 45.6075 11.7749V10.324H43.9916ZM52.768 8.23059H50.8223V6.2848H52.768V8.23059ZM48.949 23.6901L49.0047 22.203C49.2248 22.2397 49.4571 22.2581 49.7023 22.2581C50.094 22.2581 50.3968 22.084 50.6108 21.7346C50.8253 21.3858 50.9321 20.8996 50.9321 20.275V10.324H52.6577V20.0182C52.6577 21.0707 52.5418 21.8603 52.3089 22.3868C51.905 23.3045 51.1399 23.7637 50.0138 23.7637C49.8177 23.7637 49.6374 23.7606 49.4725 23.755C49.3075 23.7483 49.1329 23.7264 48.949 23.6901ZM62.0282 14.1062H57.1806C57.2541 13.3959 57.4809 12.8085 57.8603 12.3433C58.3133 11.7805 58.9251 11.4991 59.6968 11.4991C60.4184 11.4991 60.9879 11.7468 61.4041 12.2427C61.8198 12.7386 62.0282 13.3596 62.0282 14.1062ZM63.1477 19.3016V17.576C62.8908 17.7961 62.4776 18.0075 61.9087 18.2087C61.3398 18.4105 60.7918 18.5116 60.2652 18.5116C59.4083 18.5116 58.68 18.2179 58.0804 17.6301C57.4804 17.0428 57.1801 16.2956 57.1801 15.3902H63.8637C63.8637 13.7498 63.5639 12.4894 62.9638 11.6079C62.2789 10.6049 61.2014 10.1028 59.7326 10.1028C58.4104 10.1028 57.3491 10.5405 56.5473 11.4153C55.7455 12.2907 55.3446 13.4326 55.3446 14.8401C55.3446 16.4315 55.7455 17.6735 56.5473 18.5672C57.3496 19.4605 58.5641 19.9073 60.1917 19.9073C60.8531 19.9073 61.4593 19.8338 62.0098 19.6872C62.1809 19.6377 62.5603 19.51 63.1477 19.3016ZM65.7558 19.6878V10.324H67.3711V11.7749C67.6158 11.2851 67.9682 10.8842 68.4268 10.5717C68.8859 10.2596 69.3603 10.1039 69.8496 10.1039C70.0697 10.1039 70.2531 10.1131 70.4006 10.131C70.5477 10.1493 70.7433 10.183 70.988 10.2326V11.7749C70.8414 11.7136 70.6851 11.6702 70.5201 11.6462C70.3552 11.6212 70.1928 11.6089 70.0334 11.6089C69.2628 11.6089 68.6443 11.9521 68.1791 12.6375C67.7143 13.3223 67.482 14.2528 67.482 15.428V19.6878H65.7558ZM78.6133 15.2258V16.0521C78.6133 16.7865 78.387 17.3799 77.9341 17.8334C77.4816 18.2864 76.8386 18.5126 76.0067 18.5126C75.5659 18.5126 75.1742 18.3845 74.8315 18.1271C74.4521 17.8329 74.2621 17.4534 74.2621 16.9887C74.2621 16.2661 74.6901 15.7584 75.547 15.4643C76.0741 15.2804 76.7283 15.189 77.5117 15.189L78.6133 15.2258ZM73.4914 10.9844L73.5828 12.4531C73.926 12.16 74.3448 11.9271 74.8407 11.756C75.3366 11.5844 75.8228 11.4986 76.3003 11.4986C77.145 11.4986 77.7512 11.7065 78.1184 12.1227C78.4488 12.5027 78.6138 13.1084 78.6138 13.9403H77.8978H76.7773C75.6757 13.9403 74.7279 14.1609 73.9322 14.5986C72.9281 15.1466 72.4261 15.9484 72.4261 17.0066C72.4261 17.9917 72.7443 18.7323 73.3811 19.2312C73.9562 19.6811 74.7825 19.9074 75.8596 19.9074C76.5577 19.9074 77.194 19.7363 77.7691 19.3936C78.1613 19.1607 78.5035 18.8548 78.7971 18.4754V19.6878H80.413C80.389 19.4794 80.3706 19.2496 80.3578 18.9988C80.3456 18.7476 80.3395 18.3651 80.3395 17.8513V13.9776C80.3395 12.6676 80.0397 11.6947 79.4401 11.0579C78.8406 10.4216 77.8855 10.1034 76.5761 10.1034C76.0256 10.1034 75.4832 10.1825 74.951 10.3419C74.4184 10.5007 73.9322 10.7157 73.4914 10.9844ZM82.6223 19.3941L82.7142 17.8518C83.0324 18.0596 83.3996 18.222 83.8158 18.3385C84.2321 18.4544 84.5804 18.5126 84.8623 18.5126C85.3398 18.5126 85.7315 18.4207 86.0374 18.2369C86.4286 18.0045 86.6247 17.6495 86.6247 17.1725C86.6247 16.6833 85.9485 16.1016 84.5962 15.428C83.2438 14.7549 82.5672 13.9408 82.5672 12.9863C82.5672 12.0558 82.8761 11.3434 83.4946 10.8475C84.1125 10.3516 84.9052 10.1039 85.8719 10.1039C86.2391 10.1039 86.5946 10.1371 86.9373 10.2045C87.2799 10.2719 87.6415 10.3608 88.02 10.4711L87.8734 11.9761C87.6895 11.8663 87.3989 11.7591 87.0011 11.6549C86.6038 11.5512 86.2882 11.4991 86.0553 11.4991C85.5783 11.4991 85.1835 11.5967 84.8715 11.7928C84.5594 11.9889 84.4026 12.2703 84.4026 12.638C84.4026 13.1395 84.7397 13.5675 85.4128 13.9229C86.0859 14.2779 86.7529 14.62 87.4137 14.951C88.1114 15.453 88.4602 16.1322 88.4602 16.9892C88.4602 17.9315 88.1241 18.6658 87.4505 19.1924C86.851 19.6699 86.0982 19.9084 85.1917 19.9084C84.6779 19.9084 84.2157 19.8752 83.8056 19.8078C83.3965 19.7394 83.0018 19.602 82.6223 19.3941ZM90.1874 17.6311H92.2435V19.6877H90.1874V17.6311ZM94.2827 19.532V10.0283H96.1887V18.0341H99.8785V19.532H94.2827ZM102.759 11.5257V19.532H104.666V11.5257H107.388V10.0283H100.036V11.5257H102.759Z" fill="white"/>
</g>
<defs>
<clipPath id="clip0_1024_5060">
<rect width="116.441" height="30" fill="white"/>
</clipPath>
</defs>
</svg>
