<svg width="175" height="30" viewBox="0 0 175 30" fill="none" xmlns="http://www.w3.org/2000/svg">
<g clip-path="url(#clip0_1024_5090)">
<path fill-rule="evenodd" clip-rule="evenodd" d="M157.34 17.9062L158.056 15.9505H165.669L161.463 5.05777C161.214 4.44381 160.583 4.12266 159.962 3.80626C159.578 3.61088 159.198 3.4173 158.914 3.1577H164.239L172.309 24.0909C172.807 25.3668 173.739 26.4304 174.944 27.098H167.902C169.047 26.7006 169.334 25.3962 168.848 24.2614L166.357 18.1054H157.398L157.34 17.9062ZM57.5021 5.96565C57.5021 4.63255 56.8729 3.83769 55.8419 2.98724H63.7438C68.0084 2.98724 73.132 4.20732 73.132 9.48324C73.132 14.2765 67.0922 17.1419 62.8277 15.6958C65.7181 15.4679 69.3535 13.4826 69.3535 10.1919C69.3535 6.67436 67.0062 5.483 63.8288 5.483C62.8349 5.47964 61.8475 5.64283 60.9085 5.96565V23.9214C60.9085 25.2823 61.5666 26.1049 62.5977 26.9285H55.8419C56.872 26.1049 57.5021 25.2823 57.5021 23.9214V5.96565ZM75.1634 5.62566C75.1634 4.63255 74.6193 3.61164 73.7322 3.1577V3.15678H80.2291C79.37 3.61072 78.7979 4.63162 78.7979 5.62474V19.4097C78.7979 22.3613 81.3163 24.9413 84.3217 24.9413C88.2721 24.9413 90.7045 21.8499 90.7045 20.7151V5.62566C90.7045 4.63255 90.1324 3.61164 89.2163 3.1577H95.7712C94.856 3.61164 94.3119 4.63255 94.3119 5.62566V24.6579C94.3119 25.6519 94.856 26.6719 95.7712 27.099H90.7045V24.5458C86.5269 29.1398 75.1634 29.1973 75.1634 19.5246V5.62566ZM97.5192 27.0693C98.5485 26.2457 99.1785 25.424 99.1785 24.0909H99.1795V6.13519C99.1795 4.80208 98.5503 4.00815 97.5202 3.1577H105.964C109.227 3.1577 113.347 4.48988 113.347 8.43269C113.347 10.7589 111.915 12.1198 109.942 13.1416C113.29 14.3043 115.609 15.7226 115.609 19.5802C115.609 24.6569 110.685 27.0693 106.076 27.0693H97.5192ZM109.682 9.25627C109.682 5.56915 105.59 4.66034 102.671 5.68217V12.8304C105.16 13.5678 109.682 12.4042 109.682 9.25627ZM111.973 19.9489C111.973 15.1844 106.506 14.446 102.671 15.3261V24.2901C106.105 25.5648 111.973 24.4022 111.973 19.9489Z" fill="white"/>
<path d="M158.056 15.9505V15.4836H157.73L157.618 15.79L158.056 15.9505ZM157.34 17.9062L156.902 17.7456L156.849 17.8895L156.892 18.0366L157.34 17.9062ZM165.669 15.9505V16.4174H166.35L166.105 15.7823L165.669 15.9505ZM161.463 5.05777L161.898 4.88955L161.896 4.8826L161.463 5.05777ZM159.962 3.80626L160.174 3.39017V3.39017L159.962 3.80626ZM158.914 3.1577V2.69079L158.599 3.50257L158.914 3.1577ZM164.239 3.1577L164.675 2.98975L164.56 2.69079H164.239V3.1577ZM172.309 24.0909L171.874 24.2589L171.874 24.2606L172.309 24.0909ZM174.944 27.098V27.5649L175.17 26.6896L174.944 27.098ZM167.902 27.098L167.749 26.6569L167.902 27.5649V27.098ZM168.848 24.2614L168.415 24.4365L168.419 24.4452L168.848 24.2614ZM166.357 18.1054L166.79 17.9303L166.672 17.6384H166.357V18.1054ZM157.398 18.1054L156.95 18.2358L157.048 18.5723H157.398V18.1054ZM55.8419 2.98724V2.52033L55.5448 3.34744L55.8419 2.98724ZM62.8277 15.6958L62.791 15.2303L62.6777 16.1379L62.8277 15.6958ZM63.8288 5.483L63.8273 5.94991H63.8288V5.483ZM60.9085 5.96565L60.7567 5.52411L60.4416 5.63244V5.96565H60.9085ZM62.5977 26.9285V27.3954L62.8891 26.5637L62.5977 26.9285ZM55.8419 26.9285L55.5503 26.5638L55.8419 27.3954V26.9285ZM73.7322 3.1577H73.2653V3.44327L73.5195 3.57336L73.7322 3.1577ZM73.7322 3.15678V2.68986H73.2653V3.15678H73.7322ZM80.2291 3.15678L80.4472 3.5696L80.2291 2.68986V3.15678ZM89.2163 3.1577V2.69079L89.009 3.57607L89.2163 3.1577ZM95.7712 3.1577L95.9786 3.57598L95.7712 2.69079V3.1577ZM95.7712 27.099V27.5659L95.9686 26.6759L95.7712 27.099ZM90.7045 27.099H90.2376V27.5659H90.7045V27.099ZM90.7045 24.5458H91.1714L90.3591 24.2316L90.7045 24.5458ZM99.1785 24.0909V23.624H98.7116V24.0909H99.1785ZM97.5192 27.0693L97.2275 26.7048L97.5192 27.5362V27.0693ZM99.1795 24.0909V24.5578H99.6464V24.0909H99.1795ZM97.5202 3.1577V2.69079L97.2229 3.51777L97.5202 3.1577ZM109.942 13.1416L109.727 12.727L108.763 13.2265L109.789 13.5827L109.942 13.1416ZM102.671 5.68217L102.517 5.24148L102.204 5.35091V5.68217H102.671ZM102.671 12.8304H102.204V13.179L102.538 13.2781L102.671 12.8304ZM102.671 15.3261L102.567 14.871L102.204 14.9542V15.3261H102.671ZM102.671 24.2901H102.204V24.6148L102.508 24.7278L102.671 24.2901ZM157.618 15.79L156.902 17.7456L157.779 18.0667L158.495 16.1111L157.618 15.79ZM165.669 15.4836H158.056V16.4174H165.669V15.4836ZM161.027 5.22598L165.234 16.1187L166.105 15.7823L161.898 4.88957L161.027 5.22598ZM159.75 4.22235C160.068 4.38426 160.345 4.52658 160.575 4.69615C160.799 4.86132 160.949 5.032 161.03 5.23295L161.896 4.8826C161.728 4.46958 161.438 4.1727 161.129 3.94471C160.826 3.72111 160.477 3.54466 160.174 3.39017L159.75 4.22235ZM158.599 3.50257C158.939 3.81292 159.381 4.03423 159.75 4.22235L160.174 3.39017C159.776 3.18753 159.457 3.02169 159.228 2.81283L158.599 3.50257ZM164.239 2.69079H158.914V3.62461H164.239V2.69079ZM172.745 23.9229L164.675 2.98975L163.803 3.32566L171.874 24.2589L172.745 23.9229ZM175.17 26.6896C174.06 26.0745 173.202 25.095 172.744 23.9212L171.874 24.2606C172.412 25.6386 173.418 26.7864 174.717 27.5064L175.17 26.6896ZM167.902 27.5649H174.944V26.6311H167.902V27.5649ZM168.419 24.4452C168.625 24.9274 168.658 25.4246 168.539 25.823C168.424 26.2096 168.167 26.5118 167.749 26.6569L168.055 27.5391C168.782 27.2869 169.241 26.7381 169.434 26.0895C169.624 25.4526 169.557 24.7302 169.277 24.0775L168.419 24.4452ZM165.925 18.2805L168.415 24.4365L169.281 24.0863L166.79 17.9303L165.925 18.2805ZM157.398 18.5723H166.357V17.6384H157.398V18.5723ZM156.892 18.0366L156.95 18.2358L157.847 17.9749L157.789 17.7757L156.892 18.0366ZM55.5448 3.34744C56.0453 3.76032 56.4135 4.13222 56.6594 4.53765C56.8992 4.93281 57.0352 5.38034 57.0352 5.96565H57.969C57.969 5.21786 57.7904 4.60141 57.4578 4.05326C57.1315 3.51536 56.6695 3.06462 56.1389 2.62705L55.5448 3.34744ZM63.7438 2.52033H55.8419V3.45416H63.7438V2.52033ZM73.5989 9.48324C73.5989 8.08527 73.2584 6.93056 72.6583 5.99112C72.0597 5.05392 71.2191 4.35644 70.2563 3.84451C68.3432 2.82731 65.9061 2.52033 63.7438 2.52033V3.45416C65.846 3.45416 68.103 3.75722 69.8179 4.66903C70.6691 5.12161 71.376 5.71838 71.8713 6.49381C72.3652 7.26698 72.6651 8.24324 72.6651 9.48324H73.5989ZM62.6777 16.1379C64.9532 16.9096 67.6658 16.526 69.8058 15.3374C71.9498 14.1466 73.5989 12.0974 73.5989 9.48324H72.6651C72.6651 11.6624 71.2944 13.4425 69.3524 14.5211C67.4063 15.602 64.9667 15.9281 62.9776 15.2536L62.6777 16.1379ZM68.8866 10.1919C68.8866 11.6457 68.088 12.8391 66.8975 13.7165C65.703 14.5969 64.1563 15.1226 62.791 15.2303L62.8644 16.1612C64.3894 16.041 66.1057 15.4601 67.4515 14.4682C68.8014 13.4733 69.8205 12.0288 69.8205 10.1919H68.8866ZM63.8288 5.94991C65.3726 5.94991 66.6351 6.2417 67.5027 6.89199C68.345 7.52332 68.8866 8.54724 68.8866 10.1919H69.8205C69.8205 8.31907 69.1885 6.98852 68.0628 6.14477C66.9623 5.31997 65.4624 5.01609 63.8288 5.01609V5.94991ZM61.0603 6.4072C61.9499 6.10136 62.8855 5.94673 63.8273 5.94991L63.8304 5.01609C62.7843 5.01256 61.7451 5.1843 60.7567 5.52411L61.0603 6.4072ZM61.3754 23.9214V5.96565H60.4416V23.9214H61.3754ZM62.8891 26.5637C62.3913 26.166 62.0169 25.7942 61.7645 25.3824C61.5178 24.9799 61.3754 24.5191 61.3754 23.9214H60.4416C60.4416 24.6846 60.6282 25.3155 60.9684 25.8704C61.3028 26.4161 61.773 26.8674 62.3063 27.2933L62.8891 26.5637ZM55.8419 27.3954H62.5977V26.4616H55.8419V27.3954ZM57.0352 23.9214C57.0352 24.523 56.8978 24.9851 56.6576 25.3868C56.4122 25.797 56.0457 26.1678 55.5503 26.5638L56.1334 27.2932C56.6682 26.8657 57.1317 26.4133 57.459 25.8661C57.7914 25.3103 57.969 24.6807 57.969 23.9214H57.0352ZM57.0352 5.96565V23.9214H57.969V5.96565H57.0352ZM73.5195 3.57336C74.2293 3.93654 74.6965 4.78253 74.6965 5.62566H75.6303C75.6303 4.48257 75.0094 3.28675 73.9449 2.74205L73.5195 3.57336ZM73.2653 3.15678V3.1577H74.1991V3.15678H73.2653ZM80.2291 2.68986H73.7322V3.62369H80.2291V2.68986ZM79.2648 5.62474C79.2648 4.78909 79.7545 3.93563 80.4472 3.5696L80.0109 2.74395C78.9855 3.2858 78.331 4.47416 78.331 5.62474H79.2648ZM79.2648 19.4097V5.62474H78.331V19.4097H79.2648ZM84.3217 24.4744C81.5779 24.4744 79.2648 22.1072 79.2648 19.4097H78.331C78.331 22.6154 81.0546 25.4083 84.3217 25.4083V24.4744ZM90.2376 20.7151C90.2376 20.8639 90.1436 21.1773 89.8703 21.6012C89.6081 22.0078 89.2132 22.4654 88.6963 22.8945C87.6636 23.7518 86.1704 24.4744 84.3217 24.4744V25.4083C86.4234 25.4083 88.1216 24.5852 89.2927 23.613C89.8777 23.1274 90.3378 22.5994 90.6551 22.1072C90.9614 21.6323 91.1714 21.1336 91.1714 20.7151H90.2376ZM90.2376 5.62566V20.7151H91.1714V5.62566H90.2376ZM89.009 3.57607C89.7519 3.94421 90.2376 4.79365 90.2376 5.62566H91.1714C91.1714 4.47145 90.5129 3.27908 89.4236 2.73933L89.009 3.57607ZM95.7712 2.69079H89.2163V3.62461H95.7712V2.69079ZM94.7788 5.62566C94.7788 4.7844 95.244 3.94036 95.9786 3.57598L95.5637 2.73942C94.4679 3.28293 93.845 4.4807 93.845 5.62566H94.7788ZM94.7788 24.6579V5.62566H93.845V24.6579H94.7788ZM95.9686 26.6759C95.2452 26.3383 94.7788 25.5028 94.7788 24.6579H93.845C93.845 25.801 94.4667 27.0055 95.5737 27.5221L95.9686 26.6759ZM90.7045 27.5659H95.7712V26.6321H90.7045V27.5659ZM90.2376 24.5458V27.099H91.1714V24.5458H90.2376ZM74.6965 19.5246C74.6965 22.0386 75.4371 23.9638 76.6539 25.3446C77.8669 26.7212 79.5198 27.5192 81.2826 27.8444C84.782 28.49 88.8379 27.2924 91.0499 24.8599L90.3591 24.2316C88.3935 26.3932 84.6788 27.5214 81.452 26.9261C79.8517 26.6308 78.4027 25.9167 77.3545 24.7272C76.31 23.5419 75.6303 21.8469 75.6303 19.5246H74.6965ZM74.6965 5.62566V19.5246H75.6303V5.62566H74.6965ZM98.7116 24.0909C98.7116 24.6768 98.5751 25.1315 98.3349 25.5302C98.0895 25.9376 97.7226 26.3086 97.2275 26.7048L97.811 27.4339C98.3451 27.0065 98.8079 26.5548 99.1348 26.0121C99.4669 25.4608 99.6454 24.8381 99.6454 24.0909H98.7116ZM99.1795 23.624H99.1785V24.5578H99.1795V23.624ZM98.7126 6.13519V24.0909H99.6464V6.13519H98.7126ZM97.2229 3.51777C97.7232 3.93073 98.0911 4.30243 98.337 4.70766C98.5766 5.10259 98.7126 5.54989 98.7126 6.13519H99.6464C99.6464 5.38738 99.4678 4.77116 99.1353 4.22324C98.8091 3.68561 98.3474 3.23512 97.8174 2.79764L97.2229 3.51777ZM105.964 2.69079H97.5202V3.62461H105.964V2.69079ZM113.814 8.43269C113.814 6.26155 112.664 4.80333 111.112 3.91176C109.581 3.03241 107.647 2.69079 105.964 2.69079V3.62461C107.544 3.62461 109.302 3.94908 110.647 4.72153C111.97 5.48175 112.88 6.66103 112.88 8.43269H113.814ZM110.157 13.5563C111.173 13.0302 112.088 12.3979 112.75 11.5673C113.42 10.7264 113.814 9.70212 113.814 8.43269H112.88C112.88 9.48948 112.559 10.3088 112.02 10.9853C111.472 11.6722 110.685 12.2313 109.727 12.727L110.157 13.5563ZM116.076 19.5802C116.076 17.5443 115.458 16.0993 114.358 15.0175C113.282 13.9581 111.78 13.2856 110.095 12.7006L109.789 13.5827C111.452 14.1603 112.784 14.7783 113.703 15.6831C114.6 16.5656 115.142 17.7585 115.142 19.5802H116.076ZM106.076 27.5362C108.453 27.5362 110.934 26.9157 112.835 25.6137C114.75 24.3018 116.076 22.2939 116.076 19.5802H115.142C115.142 21.9433 114.005 23.6799 112.307 24.8433C110.594 26.0167 108.308 26.6024 106.076 26.6024V27.5362ZM97.5192 27.5362H106.076V26.6024H97.5192V27.5362ZM102.825 6.12287C104.194 5.64381 105.828 5.62433 107.096 6.13632C108.334 6.63616 109.215 7.63026 109.215 9.25627H110.149C110.149 7.19516 108.984 5.8913 107.446 5.27041C105.938 4.66167 104.067 4.6987 102.517 5.24148L102.825 6.12287ZM103.138 12.8304V5.68217H102.204V12.8304H103.138ZM109.215 9.25627C109.215 10.5605 108.288 11.5118 106.933 12.0684C105.577 12.6252 103.934 12.7176 102.804 12.3827L102.538 13.2781C103.897 13.6806 105.76 13.5599 107.287 12.9322C108.815 12.3045 110.149 11.0999 110.149 9.25627H109.215ZM102.775 15.7812C104.634 15.3547 106.863 15.3289 108.601 15.9597C109.464 16.2731 110.187 16.741 110.692 17.382C111.194 18.0178 111.506 18.853 111.506 19.9489H112.44C112.44 18.6626 112.069 17.6188 111.426 16.8036C110.786 15.9936 109.902 15.4386 108.919 15.0819C106.965 14.3724 104.543 14.4175 102.567 14.871L102.775 15.7812ZM103.138 24.2901V15.3261H102.204V24.2901H103.138ZM111.506 19.9489C111.506 21.9154 110.23 23.1829 108.451 23.8286C106.657 24.4795 104.445 24.4505 102.833 23.8523L102.508 24.7278C104.331 25.4044 106.771 25.4314 108.769 24.7064C110.782 23.9761 112.44 22.4357 112.44 19.9489H111.506Z" fill="white"/>
<path fill-rule="evenodd" clip-rule="evenodd" d="M116.467 3.15768C117.325 3.98034 117.756 4.40556 117.756 5.65344V23.6657C117.756 24.8848 117.612 26.3597 116.467 27.098H130.922L132.468 22.4734C129.376 25.0553 125.053 24.7709 121.303 24.2317V5.65436C121.303 4.40556 121.734 3.98034 122.622 3.15861H116.467V3.15768ZM133.01 3.15768C133.899 3.61163 134.441 4.63253 134.441 5.62565V24.6578C134.441 25.651 133.899 26.6719 133.01 27.0989H139.309C138.393 26.6719 137.849 25.6519 137.849 24.6578V5.62565C137.849 4.63253 138.393 3.61163 139.309 3.15768H133.01ZM141.084 3.15768C141.969 3.61163 142.513 4.63253 142.513 5.62565V24.6578C142.513 25.651 141.969 26.6719 141.084 27.0989H147.381C146.465 26.6719 145.95 25.6519 145.95 24.6578V5.62565C145.95 4.63253 146.465 3.61163 147.381 3.15768H141.084Z" fill="white" stroke="white" stroke-width="0.933823" stroke-miterlimit="2.613"/>
<path fill-rule="evenodd" clip-rule="evenodd" d="M152.447 3.1577C153.679 3.86641 153.621 5.143 152.878 6.1639L146.809 14.673L153.822 24.6866C154.852 26.1614 156.082 27.099 157.886 27.099H161.208C159.433 25.4814 157.315 23.5239 155.94 21.5951L150.388 13.9087L158.087 3.15863H152.447V3.1577ZM0.0545044 3.07247C0.94257 3.52548 1.48569 4.54732 1.48569 5.54043V24.5726C1.48569 25.5657 0.941635 26.5867 0.0545044 27.0137H6.35136C5.43618 26.5867 4.89119 25.5667 4.89119 24.5726V6.05089C5.83999 5.72845 6.83654 5.56562 7.83957 5.56915C9.92886 5.56915 12.2472 6.93098 12.2472 9.08581C12.2472 12.8017 9.3848 13.767 6.00735 14.5887C8.18264 18.1906 10.5299 21.2542 13.0483 24.6014C13.7924 25.5945 15.7966 27.0137 17.0848 27.0137H20.4342C18.6599 25.3962 16.5407 23.4387 15.1385 21.5099L10.1869 15.2983C12.9343 14.6461 16.0257 12.0939 16.0257 9.08581C16.0257 4.60476 11.446 3.0734 7.72459 3.0734H0.0545044V3.07247ZM53.4955 3.18549C48.3428 1.85239 39.0116 1.76715 39.0116 9.08488C39.0116 13.1129 43.4762 14.7869 46.5396 16.2053C48.7439 17.2262 51.6352 18.3333 51.6352 21.0273C51.6352 24.1752 47.3127 24.7709 45.0523 24.7709C42.9051 24.7709 39.8426 23.2108 38.1254 21.9342L39.1845 26.1902C41.1653 26.947 43.2736 27.3221 45.3963 27.2954C49.7469 27.2954 55.4436 25.1118 55.4436 20.0054C55.4436 15.4113 50.4059 14.2765 47.0285 12.4042C45.3113 11.4973 42.849 10.5894 42.849 8.26316C42.849 4.00815 50.0049 3.64036 53.4974 7.044V3.18549H53.4955Z" fill="white" stroke="white" stroke-width="0.933823" stroke-miterlimit="2.613"/>
<path fill-rule="evenodd" clip-rule="evenodd" d="M36.7503 7.12829V0.00881958C31.7416 1.82366 28.7353 1.34193 25.1288 2.50457C24.0407 2.73154 21.5504 4.26291 20.4352 6.04995V13.1416C21.5513 11.3833 24.0407 9.87974 25.1288 9.59625C28.7362 8.4614 31.7416 9.00057 36.7503 7.12829Z" fill="white"/>
<path fill-rule="evenodd" clip-rule="evenodd" d="M36.7503 15.5531V8.43359C31.7416 10.2494 28.7353 9.7667 25.1288 10.9293C24.0407 11.1285 21.5504 12.6877 20.4352 14.4191V21.5386C21.5513 19.7506 24.0407 18.2489 25.1288 18.021C28.7362 16.8306 31.7416 17.3966 36.7503 15.5531Z" fill="white"/>
<path fill-rule="evenodd" clip-rule="evenodd" d="M36.7503 23.9769V16.8565C31.7416 18.6732 28.7353 18.1896 25.1288 19.3532C24.0407 19.5793 21.5504 21.1115 20.4352 22.8977V29.9903C21.5513 28.2319 24.0407 26.7284 25.1288 26.444C28.7362 25.311 31.7416 25.8501 36.7503 23.9769Z" fill="white"/>
</g>
<defs>
<clipPath id="clip0_1024_5090">
<rect width="175" height="30" fill="white"/>
</clipPath>
</defs>
</svg>
